<?xml version="1.0" standalone="no"?>
<!DOCTYPE svg PUBLIC "-//W3C//DTD SVG 20010904//EN"
 "http://www.w3.org/TR/2001/REC-SVG-20010904/DTD/svg10.dtd">
<svg version="1.0" xmlns="http://www.w3.org/2000/svg"
 width="375.000000pt" height="375.000000pt" viewBox="0 0 375.000000 375.000000"
 preserveAspectRatio="xMidYMid meet">
<metadata>
Created by potrace 1.14, written by Peter Selinger 2001-2017
</metadata>
<g transform="translate(0.000000,375.000000) scale(0.100000,-0.100000)"
fill="#000000" stroke="none">
<path d="M970 2005 l0 -435 435 0 435 0 0 435 0 435 -435 0 -435 0 0 -435z"/>
<path d="M2830 1955 l0 -435 435 0 435 0 0 435 0 435 -435 0 -435 0 0 -435z"/>
<path d="M50 1792 l0 -439 217 -7 c119 -4 315 -4 435 0 l218 7 0 438 0 439
-435 0 -435 0 0 -438z"/>
<path d="M2038 2053 l-138 -4 0 -434 0 -435 440 0 440 0 0 433 0 434 -202 6
c-112 4 -248 6 -303 5 -55 -1 -162 -4 -237 -5z"/>
</g>
</svg>
